<?xml version="1.0" encoding="UTF-8"?>
<svg width="32px" height="32px" viewBox="0 0 32 32" version="1.1" xmlns="http://www.w3.org/2000/svg" xmlns:xlink="http://www.w3.org/1999/xlink">
    <!-- Generator: Sketch 50.2 (55047) - http://www.bohemiancoding.com/sketch -->
    <title>Aquapark</title>
    <desc>Created with Sketch.</desc>
    <defs></defs>
    <g id="Page-1" stroke="none" stroke-width="1" fill="none" fill-rule="evenodd">
        <g id="Meta" transform="translate(-84.000000, -4186.000000)" fill="#FF8D00" fill-rule="nonzero">
            <g id="Icon" transform="translate(51.000000, 44.000000)">
                <g id="Season" transform="translate(17.000000, 4100.000000)">
                    <g id="Icons" transform="translate(0.000000, 42.000000)">
                        <g id="Aquapark">
                            <path d="M25,9.50763398 C24.3489891,9.26758591 23.6964628,9.11853182 23,9.0482262 L23,18 L21,18 L21,9 L20,9 C18.8947153,9 18,8.10528475 18,7 L18,4 C18,2.89471525 18.8947153,2 20,2 L22,2 C26.489161,2 29.2836669,3.37184834 33.3832378,6.7260427 C33.4273732,6.76215345 34.2983903,7.47814179 34.5487402,7.68143344 C37.4988677,10.0770257 39.347924,11 42,11 L44,11 C45.1052847,11 46,11.8947153 46,13 L46,16 C46,17.1052847 45.1052847,18 44,18 L42,18 C37.510839,18 34.7163331,16.6281517 30.6167622,13.2739573 C30.5726268,13.2378465 29.7016097,12.5218582 29.4512598,12.3185666 C28.549408,11.5862358 27.7504536,10.9915242 27,10.5187293 L27,17.9996 L25,17.9996 L25,9.50763398 Z M18,30 L18,28 C18.9751002,28 19.6217174,27.7868295 21.0700664,27.0971395 C22.7717174,26.2868295 23.6417669,26 25,26 C26.3582331,26 27.2282826,26.2868295 28.9299336,27.0971395 C30.3782826,27.7868295 31.0248998,28 32,28 C32.9751002,28 33.6217174,27.7868295 35.0700664,27.0971395 C36.7717174,26.2868295 37.6417669,26 39,26 C40.3582331,26 41.2282826,26.2868295 42.9299336,27.0971395 C44.3782826,27.7868295 45.0248998,28 46,28 L46,30 C44.6417669,30 43.7717174,29.7131705 42.0700664,28.9028605 C40.6217174,28.2131705 39.9751002,28 39,28 C38.0248998,28 37.3782826,28.2131705 35.9299336,28.9028605 C34.2282826,29.7131705 33.3582331,30 32,30 C30.6417669,30 29.7717174,29.7131705 28.0700664,28.9028605 C26.6217174,28.2131705 25.9751002,28 25,28 C24.0248998,28 23.3782826,28.2131705 21.9299336,28.9028605 C20.2282826,29.7131705 19.3582331,30 18,30 Z M18,25 L18,23 C18.9751002,23 19.6217174,22.7868295 21.0700664,22.0971395 C22.7717174,21.2868295 23.6417669,21 25,21 C26.3582331,21 27.2282826,21.2868295 28.9299336,22.0971395 C30.3782826,22.7868295 31.0248998,23 32,23 C32.9751002,23 33.6217174,22.7868295 35.0700664,22.0971395 C36.7717174,21.2868295 37.6417669,21 39,21 C40.3582331,21 41.2282826,21.2868295 42.9299336,22.0971395 C44.3782826,22.7868295 45.0248998,23 46,23 L46,25 C44.6417669,25 43.7717174,24.7131705 42.0700664,23.9028605 C40.6217174,23.2131705 39.9751002,23 39,23 C38.0248998,23 37.3782826,23.2131705 35.9299336,23.9028605 C34.2282826,24.7131705 33.3582331,25 32,25 C30.6417669,25 29.7717174,24.7131705 28.0700664,23.9028605 C26.6217174,23.2131705 25.9751002,23 25,23 C24.0248998,23 23.3782826,23.2131705 21.9299336,23.9028605 C20.2282826,24.7131705 19.3582331,25 18,25 Z M44,13 L42,13 C38.7800908,13 36.5626684,11.8931522 33.2879945,9.23401845 C33.0321086,9.02623139 32.1568105,8.3067241 32.1167622,8.2739573 C28.3413331,5.18496984 25.9275056,4 22,4 L20,4 L20,7 L22,7 C25.2199092,7 27.4373316,8.10684783 30.7120055,10.7659815 C30.9678914,10.9737686 31.8431895,11.6932759 31.8832378,11.7260427 C35.6586669,14.8150302 38.0724944,16 42,16 L44,16 L44,13 Z"></path>
                        </g>
                    </g>
                </g>
            </g>
        </g>
    </g>
</svg>