<?xml version="1.0" encoding="UTF-8"?>
<svg width="32px" height="32px" viewBox="0 0 32 32" version="1.1" xmlns="http://www.w3.org/2000/svg" xmlns:xlink="http://www.w3.org/1999/xlink">
    <!-- Generator: Sketch 43.2 (39069) - http://www.bohemiancoding.com/sketch -->
    <title>Metacategory / Carservice</title>
    <desc>Created with Sketch.</desc>
    <defs></defs>
    <g id="Page-1" stroke="none" stroke-width="1" fill="none" fill-rule="evenodd">
        <g id="New-meta-draft" transform="translate(-484.000000, -84.000000)">
            <g id="Slice" transform="translate(84.000000, 84.000000)"></g>
            <g id="Icon" transform="translate(51.000000, 42.000000)" stroke="#319CFE" stroke-width="2">
                <g id="Meta" transform="translate(28.000000, 0.000000)">
                    <g id="Carservice" transform="translate(406.000000, 47.000000)">
                        <path d="M16,4 L18,4 L19,4 C20.657,4 22,5.343 22,7 L22,9 L24,9 L26,9 L26,8 C26,7.448 26.448,7 27,7 L29,7 C29.552,7 30,7.448 30,8 L30,18 C30,18.552 29.552,19 29,19 L27,19 C26.448,19 26,18.552 26,18 L26,17 L22,17 L22,19 C22,20.657 20.657,22 19,22 L6,22 L4,19 L2,19 C0.895,19 0,18.105 0,17 L0,9 C0,7.895 0.895,7 2,7 L4,7 L6,4 L10,4" id="Stroke-1"></path>
                        <path d="M7,0 L19,0" id="Stroke-3"></path>
                        <path d="M13,0 L13,8" id="Stroke-5"></path>
                        <path d="M13,15 L13,11" id="Stroke-7"></path>
                        <path d="M18,15 L18,11" id="Stroke-9"></path>
                        <path d="M8,15 L8,11" id="Stroke-11"></path>
                    </g>
                </g>
            </g>
        </g>
    </g>
</svg>