<?xml version="1.0" encoding="UTF-8"?>
<svg width="32px" height="32px" viewBox="0 0 32 32" version="1.1" xmlns="http://www.w3.org/2000/svg" xmlns:xlink="http://www.w3.org/1999/xlink">
    <!-- Generator: Sketch 44.1 (41455) - http://www.bohemiancoding.com/sketch -->
    <title>Metacategory / grocery</title>
    <desc>Created with Sketch.</desc>
    <defs></defs>
    <g id="Page-1" stroke="none" stroke-width="1" fill="none" fill-rule="evenodd">
        <g id="New-meta-draft" transform="translate(-284.000000, -84.000000)">
            <g id="Slice" transform="translate(84.000000, 84.000000)"></g>
            <g id="Icon" transform="translate(51.000000, 42.000000)" stroke="#52B311" stroke-width="2">
                <g id="Meta" transform="translate(28.000000, 0.000000)">
                    <g id="Grocery" transform="translate(208.000000, 43.750000)">
                        <path d="M10,10.2456 L2,10.2456 C0.895,10.2456 0,11.1406 0,12.2456 L0,15.2456 L2,15.2456 L4.432,24.9736 C4.766,26.3086 5.966,27.2456 7.342,27.2456 L18.658,27.2456 C20.034,27.2456 21.234,26.3086 21.568,24.9736 L24,15.2456 L26,15.2456 L26,12.2456 C26,11.1406 25.105,10.2456 24,10.2456 L18,10.2456" id="Stroke-1"></path>
                        <polyline id="Stroke-3" points="2 15.2456 13 15.2456 16.8 0.2456"></polyline>
                        <path d="M24,15.2456 L13,15.2456" id="Stroke-5"></path>
                        <path d="M8,21.2456 L18,21.2456" id="Stroke-7"></path>
                    </g>
                </g>
            </g>
        </g>
    </g>
</svg>